<?xml version="1.0" encoding="utf-8"?>
<!-- Generator: Adobe Illustrator 19.1.0, SVG Export Plug-In . SVG Version: 6.00 Build 0)  -->
<svg version="1.1" id="Layer_1" xmlns="http://www.w3.org/2000/svg" xmlns:xlink="http://www.w3.org/1999/xlink" x="0px" y="0px"
	 viewBox="-58 350 494 94" style="enable-background:new -58 350 494 94;" xml:space="preserve">
<style type="text/css">
	.st0{fill:#FFFFFF;}
	.st1{fill:#EEB111;}
</style>
<g>
	<path class="st0" d="M41.2,394.7c1.4,3.5,1.8,5,2.6,5c0.6,0,0.9-0.3,1.3-1.3l5.7-14.2c0.2-0.4,0.4-0.4,0.5-0.4
		c0.2,0,0.3,0.2,0.4,0.5l5.6,13.5c0.7,1.6,0.9,1.9,1.4,1.9c0.8,0,1.2-1,1.5-1.7l13.2-31.1c1.7-4.1,3-2.7,3-3.8
		c0-0.6-0.3-0.6-0.6-0.6c-1.2,0-2.7,0.2-4.3,0.2c-1.2,0-2.4-0.2-3.6-0.2c-0.4,0-0.6,0.4-0.6,0.8c0,1,3.3,0.7,3.3,2.9
		c0,0.6-0.1,1.1-0.4,1.7l-9.3,23c-0.5,1.1-0.8,1.9-1.1,1.9s-0.6-0.4-1.1-1.6l-4.3-10.6c-0.3-0.8-0.7-1.9-0.7-2.5
		c0-0.5,0-0.9,0.5-1.9l3.6-8.4c2.3-5.4,3.5-3.4,3.5-4.9c0-0.2-0.2-0.3-0.4-0.3c-0.9,0-1.5,0.2-3.7,0.2c-1.1,0-2.2-0.2-3.3-0.2
		c-0.3,0-1,0-1,0.5c0,1.1,3,0.8,3,3c0,0.5-0.3,1.3-0.5,1.8l-2.5,6c-0.3,0.7-0.6,1.3-0.7,1.3s-0.3-0.4-0.7-1.3l-2.7-6.8
		c-0.3-0.6-0.4-0.9-0.4-1.5c0-1.7,2.1-1.5,2.1-2.4c0-0.3-0.1-0.6-0.3-0.6c-1.1,0-2.5,0.2-5,0.2c-0.7,0-3.4-0.2-5.2-0.2
		c-0.5,0-0.8,0-0.8,0.6c0,1.7,3.6-0.1,5,3.3l5.1,12.3c0.3,0.7,0.5,1.3,0.5,1.6c0,0.3-0.2,1.1-0.6,2.1l-3.8,9
		c-0.2,0.6-0.5,0.9-0.7,0.9c-0.3,0-0.7-0.8-0.9-1.3L34.1,367c-0.2-0.5-0.3-1-0.3-1.3c0-1.7,2.2-1.7,2.2-2.5c0-0.4-0.1-0.6-0.4-0.6
		c-1.2,0-2.5,0.2-3.7,0.2c-1.5,0-3-0.2-4.5-0.2c-0.5,0-1.2,0.2-1.2,0.8c0,1,2.5,0.4,3.7,3.4L41.2,394.7L41.2,394.7L41.2,394.7z"/>
	<path class="st0" d="M71.4,384.3c0-2.8,2.3-6.5,5.4-6.5c2.8,0,5.7,2.6,5.7,5.4c0,0.8-0.3,1-1,1H71.4V384.3L71.4,384.3z M85.1,385.7
		c1.2,0,1.7,0.1,1.7-0.9c0-2.1-2.8-8.1-9.1-8.1c-6.4,0-10,5.5-10,12c0,3.4,2.7,10.5,10.4,10.5c4.6,0,9.1-3.7,9.1-4.9
		c0-0.2,0-0.4-0.2-0.4c-1.1,0-2.8,2.7-7.2,2.7c-3.1,0-8.3-2.5-8.3-11L85.1,385.7L85.1,385.7L85.1,385.7z"/>
	<path class="st0" d="M95.5,389.2c2,1,4.7,1.8,4.7,4.5s-2,4.2-4.6,4.2c-5.5,0-5-6.8-6.1-6.8c-0.8,0-0.6,1.6-0.6,2.5
		c0,4.1,0,4.1,1.1,4.1c1.2,0,2.2,1.5,5.7,1.5c3.8,0,6.9-3.2,6.9-7c0-3.3-1.3-4.9-4.3-6.1c-5.4-2.1-6.7-3.2-6.7-4.9
		c0-2.1,1.6-3.3,3.6-3.3c4.7,0,5.1,4.5,5.6,4.5c0.8,0,0.6-0.6,0.6-2c0-0.4,0.1-2.1-0.3-2.5c-0.6-0.8-4.2-1.2-5-1.2
		c-3.7,0-6.9,2-6.9,6.1C89.3,386.5,92.7,387.8,95.5,389.2L95.5,389.2L95.5,389.2z"/>
	<path class="st0" d="M106.1,393.3c0,5.3,3.4,5.9,5.7,5.9c3.6,0,6.4-1.7,6.4-2.5c0-0.4-0.2-0.5-0.4-0.5c-0.9,0-1.6,1.2-4.4,1.2
		c-2,0-3.5-1-3.6-3.1v-14.8h6.7l0.7-1.9c0.2-0.3-0.4-0.2-1.7-0.2h-5.6c0-3.7,0.1-4.8-0.7-4.8c-0.4,0-0.8-0.3-1,1.3
		c-0.4,3.4-3.2,4.7-3.2,5.1c0.3-0.3-0.9,0.5,1.2,0.4L106.1,393.3L106.1,393.3L106.1,393.3z"/>
	<path class="st0" d="M131.8,396.5c0.5,1.1,1.1,3.2,1.9,3.2s1.1-1.7,1.7-3l12.8-30.2c1.4-3.4,2.9-2.2,2.9-3.3c0-0.5-0.3-0.7-0.9-0.7
		c-0.7,0-1.5,0.2-3.9,0.2c-1.1,0-2.3-0.2-3.4-0.2c-0.5,0-0.8,0.2-0.8,0.7c0,1.2,3.3,0.2,3.3,2.6c0.2,1.1-0.4,2.7-0.7,3.5l-8.9,22
		c-0.3,0.6-0.4,1.4-0.9,1.4c-0.6,0-0.9-1.2-2-3.9l-9-21.1c-0.2-0.5-0.5-1.3-0.5-2c0-1.8,2.2-1.9,2.1-2.6c0-0.3-0.4-0.5-0.7-0.5
		c-0.7,0-2.7,0.2-4,0.2c-1.5,0-3.1-0.2-4.7-0.2c-0.5,0-0.7,0.3-0.7,0.7c0,1.1,2.7,0.2,3.9,3.2L131.8,396.5L131.8,396.5L131.8,396.5z
		"/>
	<path class="st0" d="M190.5,369.3c-0.6,0-2.2,2.2-2.2,2.7c0,0.6,1.5,2.7,2.2,2.7s2.2-2.1,2.2-2.7S191.3,369.3,190.5,369.3
		L190.5,369.3L190.5,369.3z"/>
	<path class="st0" d="M225.6,369c-0.6,0-2.2,2.2-2.2,2.7c0,0.6,1.5,2.7,2.2,2.7s2.2-2,2.2-2.7C227.8,371.1,226.3,369,225.6,369
		L225.6,369L225.6,369z"/>
	<path class="st0" d="M244.5,386.4c-12,2-12.9,5.2-12.9,7.9c0,3.6,2.2,4.9,5.5,4.9c2.9,0,5.7-1.1,7.8-3c0.7,1.7,2,2.6,4,2.6
		c0.7,0,3-0.2,3-1.3c0-0.4-0.4-0.4-0.7-0.4c-0.2,0-0.7,0.1-0.9,0.1c-2.7,0-2.2-3-2.2-4.8V382c0-4.4-4.9-5.3-8.1-5.3
		c-5.7-0.2-8.6,3.4-8.6,5.8c0,0.9,1.5,1.7,2.4,1.7c1,0,1.1-0.4,1.1-1s-0.3-1.3-0.3-2.1c0-2.8,2-3.1,4.5-3.1c3.2,0,5.3,1.8,5.3,4.5
		L244.5,386.4L244.5,386.4L244.5,386.4z M244.5,393.6c0,2.7-3.5,4.1-5.3,4.1c-2.7,0-4.2-1.1-4.2-4c0-4.5,6.3-5.3,9.5-6V393.6
		L244.5,393.6L244.5,393.6z"/>
	<path class="st0" d="M154.5,397.7c-0.4,0-3.8,0-3.8-2.2v-18.4c0-0.5-0.3-0.8-0.6-0.8c-1.2,0-2.2,1.6-5.5,2.6
		c-0.3,0-0.5,0.3-0.5,0.6c0,1.1,2.8-0.3,2.8,2.8v12c0,4.7-2.3,2.7-2.3,4c0.1,0.5,0.4,0.6,0.8,0.6c0.6,0,1.9-0.2,3.5-0.2
		c2.1,0,3.7,0.2,4.8,0.2c0.2,0,0.4,0,0.6,0s0.2,0,0.3,0c0.4,0,1.3-0.2,4.7-0.2c2.9,0,4.1,0.2,4.8,0.2c0.6,0,0.8-0.1,0.8-0.6
		c0-1.6-4.6,0.8-4.6-3.9V383c0-0.7,4.1-7.8,10.3-7.6c1.8,0.1,1.5,0.2,2.8-1.7c0.5-0.8-1.9-0.8-2.9-0.7c-6.9,0.5-8.4,5.2-10.1,7.7
		v-0.1v-3.4c0-0.5-0.3-0.8-0.6-0.8c-1.2,0-2.2,1.6-6.2,2.6c-0.3,0-0.7,0.3-0.7,0.6c0,1.1,3.7-0.3,3.7,2.8v13.2
		C156.8,397.1,155.1,397.8,154.5,397.7L154.5,397.7L154.5,397.7z"/>
	<path class="st0" d="M221.5,397.7c-0.5,0-3.8,0.2-3.8-2.9v-8.5c0-3.9-1.5-9.6-8.4-9.6c-5,0-7.5,4.4-7.4,3.8v-3.4
		c0-0.5-0.3-0.8-0.6-0.8c-1.2,0-2.2,1.6-6.5,2.6c-0.3,0-0.5,0.3-0.5,0.6c0,1.1,3.8-0.3,3.8,2.8V395c0,2.4-1.7,2.7-2.5,2.7
		c-0.3-0.1-3.5-0.1-3.5-2.1v-18.5c0-0.5-0.3-0.8-0.6-0.8c-1.2,0-2.2,1.6-5.5,2.6c-0.3,0-0.9,1.8-0.6,1.7c1.7-0.2,2.9-1.4,2.9,1.6
		v12.1c0,4.7-2.3,2.7-2.3,4c0.1,0.5,0.4,0.6,0.8,0.6c0.6,0,1.9-0.2,3.5-0.2c2.1,0,3.7,0.2,4.8,0.2c0.1,0,0.4,0,0.5,0s0.2,0,0.3,0
		c0.6,0,1.6-0.2,4.4-0.2c3,0,4,0.2,4.9,0.2c0.8,0,1.1-0.1,1.1-0.7c0-1.4-4.5,0.1-4.5-3.4V383c-0.1-0.8,1.7-4,6-4c4.1,0,6,3.8,6,6.4
		v9.6c0,3.3-2.2,2.3-2.2,3.3c0,0.5,0.3,0.6,0.9,0.6c0.7,0,1.7-0.2,3.7-0.2c2.5,0,3.8,0.2,4.5,0.2c0.3,0,0.4,0,0.6,0s0.3,0,0.6,0
		c0.6,0,1.9-0.2,3.5-0.2c2.1,0,3.7,0.2,4.8,0.2c0.7,0,1-0.2,1-0.6c0-1.3-4-0.2-4-2.8v-18.4c0-0.5-0.3-0.8-0.6-0.8
		c-1.2,0-2.2,1.6-5.5,2.6c-0.3,0-0.5,0.3-0.5,0.6c0,1.1,2.8-0.3,2.8,2.8v12C223.5,397.8,222.3,397.6,221.5,397.7L221.5,397.7
		L221.5,397.7z"/>
	<path class="st0" d="M175.5,391.3c-3.6,0-4.9-3.5-4.9-6.6c0-2.7,0.8-6,4.7-6c3.6,0,4.9,3.6,4.9,6.8
		C180.1,387.2,179.8,391.3,175.5,391.3L175.5,391.3z M188.3,378.9c-0.2-0.4-0.7-0.4-0.9-0.4h-0.1c-1.6,0.6-3,0.8-4.1,0.8
		c-0.6,0-1.2-0.1-1.5-0.3c-0.4-0.2-0.8-0.4-1.1-0.6c-1.2-0.7-2.2-1.4-5.5-1.4c-4.9,0-8.6,3.6-8.6,8.4c0,2.6,1.2,5,3.1,6.4
		c-0.8,0.7-2.5,2.4-2.5,4.2c0,2.2,0.8,3.8,2.1,4.4c1.1,0.6,3.4,1,6.8,1.1c5.5,0.2,6.7,0.4,6.7,2.1c0,0.8-0.4,4.7-8.2,4.7
		c-2,0-6.5-0.4-6.5-3.8c0-1.2,0.1-1.3,0.7-2.1c0.2-0.2,0.2-0.5,0.1-0.8s-0.5-0.5-0.9-0.5c-0.1,0-0.1,0-0.3,0c-1,0.3-2.5,0.8-2.5,3.3
		c0,4.6,5.9,5.8,9,5.8c8.6,0,11.6-4.2,11.6-7.8c0-4.9-5.3-4.9-8.2-4.9c-0.4,0-0.8,0-1.2,0s-0.7,0-1.1,0c-3.5,0-4.9-0.6-5.4-1.1
		c-0.3-0.4-0.3-0.7-0.3-1c0-1,1.1-2.5,2.1-2.5c0.2,0,0.3,0,0.6,0.1c0.5,0.1,1.2,0.3,3,0.3c5.1,0,8.9-3.4,8.9-8.2
		c0-0.8-0.1-1.7-0.4-2.9c-0.1-0.2-0.2-0.4-0.3-0.6c-0.1-0.1-0.1-0.3-0.2-0.4c1.7-0.2,4.7-0.9,4.8-1.5
		C188.3,379.6,188.5,379.2,188.3,378.9L188.3,378.9z"/>
	<path class="st0" d="M363.6,397.7c-0.3,0.1-0.6,0.8,0,1.1c0.2,0.1-0.1,0,0.1,0s0.2,0,0.3,0c0.4,0,1.3-0.2,4.7-0.2
		c2.9,0,4.1,0.2,4.8,0.2c0.6,0,0.8-0.1,0.8-0.6c0-1.6-4.6,0.8-4.6-3.9v-11.4c0-0.7,4.1-7.8,10.3-7.6c1.8,0.1,1.5,0.2,2.8-1.7
		c0.5-0.8-1.9-0.8-2.9-0.7c-6.9,0.6-8.4,5.2-10.1,7.7v-0.1v-3.4c0-0.5-0.3-0.8-0.6-0.8c-1.2,0-2.2,1.6-6.1,2.6
		c-0.3,0.1-0.7,0.3-0.7,0.6c0,1.1,3.7-0.3,3.7,2.8v13.2C366.1,397,364.3,397.5,363.6,397.7L363.6,397.7L363.6,397.7z"/>
	<path class="st0" d="M430.5,380.7c1-3.1,2.8-1.8,2.8-3c0-0.4-0.4-0.6-1-0.6c-0.5,0-1.4,0.2-2.6,0.2c-1.4,0-2.3-0.2-2.9-0.2
		c-0.9,0-1.5,0-1.5,0.6c0,1.1,3.3,0.4,3.3,3.1c0,0.4,0,0.8-0.6,2.7c-3.5,11.1-3.9,11.6-3.9,11.6l-5.5-13.9l0.1-0.1
		c0.1,0.5-0.4-0.3-0.4-1.1c0-2,2.9-1,2.9-2.1c0-0.6-0.3-0.7-1.1-0.7s-2,0.2-3.8,0.2c-1.4,0-2.5-0.1-3.6-0.1c-0.7,0-0.8,0.1-1,0.5
		c-1.3,2.6,1.9,0.8,2.4,1.9l6.7,16.5c0.5,1.1,1,2.2,1,3.4c0,4-4.8,12.8-12.6,11.8c-0.3,0-0.9-0.2-1.1,0.1c0.2,0.1-0.7-0.2,0.9,2.1
		c0.6,0.5,1.7,0.7,3.5,0.3c5.3-1.2,8.8-6.5,8.9-6.6C424.3,403.3,430.5,380.7,430.5,380.7L430.5,380.7L430.5,380.7z"/>
	<path class="st0" d="M259.5,366.7c0-3.7,3.4-2.3,3.4-3.7c0-0.6-1.4-0.5-1.6-0.5c-1.6,0-3.2,0.2-4.9,0.2c-1.4,0-2.7-0.2-4-0.2
		c-0.3,0-1.1,0.2-1.1,0.5c0,1.6,4.2,0.4,4.2,3.4v17.3c0,7.9,2.6,15.4,16,15.4c14.9,0,14.3-12.7,14.3-15.2v-15.8c0-4.7,3-3.6,3-5
		c0-0.3-0.4-0.6-0.7-0.6c-0.9,0-1.8,0.2-2.8,0.2c-2,0-4-0.2-6-0.2c-0.2,0-0.5,0.3-0.5,0.5c0,1.9,4.8-0.2,4.8,5v16.6
		c0,6-2.2,12.4-11.8,12.4c-6.9,0-12.2-3.7-12.2-11.9L259.5,366.7L259.5,366.7L259.5,366.7z"/>
	<path class="st0" d="M347,384.3c0-2.8,2.3-6.5,5.4-6.5c2.8,0,5.7,2.6,5.7,5.4c0,0.8-0.3,1-1,1H347V384.3L347,384.3z M360.8,385.6
		c1.2,0,1.7,0,1.7-0.9c0-2.1-2.8-8.1-9.1-8.1c-6.4,0-10,5.5-10,12c0,3.4,2.7,10.5,10.4,10.5c4.6,0,9.1-3.7,9.1-4.9
		c0-0.2,0-0.4-0.2-0.4c-1.1,0-2.8,2.7-7.2,2.7c-3.1,0-8.2-2.5-8.2-11L360.8,385.6L360.8,385.6L360.8,385.6z"/>
	<path class="st0" d="M383.4,389.1c2.1,1,4.7,1.8,4.7,4.5s-2,4.2-4.6,4.2c-5.5,0-5-6.8-6.1-6.8c-0.8,0-0.6,1.6-0.6,2.5
		c0,4,0,4.1,1.1,4.1c1.2,0,2.2,1.5,5.7,1.5c3.8,0,6.9-3.2,6.9-7c0-3.3-1.3-4.9-4.3-6.1c-5.4-2.2-6.7-3.2-6.7-4.9
		c0-2.1,1.6-3.3,3.6-3.3c4.7,0,5.1,4.5,5.6,4.5c0.8,0,0.6-0.6,0.6-2c0-0.4,0.1-2.1-0.3-2.5c-0.6-0.8-4.2-1.2-5-1.2
		c-3.7,0-6.9,2-6.9,6.1C377.1,386.4,380.6,387.7,383.4,389.1L383.4,389.1L383.4,389.1z"/>
	<path class="st0" d="M403.8,393.2c0,5.3,3.4,5.9,5.7,5.9c3.6,0,6.4-1.7,6.4-2.5c0-0.4-0.2-0.5-0.4-0.5c-0.9,0-1.6,1.2-4.4,1.2
		c-2.1,0-3.5-1-3.6-3.1v-14.8h6.7l0.7-1.9c0.2-0.3-0.4-0.2-1.7-0.2h-5.6c0-3.7,0-4.8-0.7-4.8c-0.4,0-0.8-0.3-1,1.3
		c-0.4,3.4-3.2,4.7-3.2,5.1c0.3-0.3-0.9,0.5,1.2,0.4L403.8,393.2L403.8,393.2L403.8,393.2z"/>
	<path class="st0" d="M330.3,382c-0.6-1.5-0.9-2.3-0.9-2.5c0-1.5,2.9-0.9,2.9-1.9c0-0.6-0.5-0.6-1.2-0.6c-0.6,0-1.3,0.2-3.1,0.2
		c-3.3,0-3.3-0.2-4.3-0.2s-1.1,0.3-1.1,0.6c0,0.9,1.8,0.2,2.8,2.4l7.6,17.4c0.1,0.4,0.4,1.2,1,1.2c0.8,0,0.8-0.6,1.7-2.7l7.7-16.4
		c0.7-1.5,2.5-1.2,2.5-1.9c0-0.7-0.9-0.8-1.4-0.8c-0.9,0-1.8,0.2-2.6,0.2c-1.1,0-2.1-0.2-3.1-0.2c-0.7,0-1.2,0-1.2,0.7
		c0,1.3,3.1-0.1,3.1,2.7c0,2.3-1.3,4.4-2.2,6.4l-3.4,7.3L330.3,382L330.3,382L330.3,382z"/>
	<path class="st0" d="M314.9,398.8c0.2,0,0.2,0,0.5,0c0.6,0,1.9-0.2,3.5-0.2c2.1,0,3.7,0.2,4.8,0.2c0.7,0,1-0.2,1-0.6
		c0-1.3-4-0.2-4-2.8V377c0-0.5-0.3-0.8-0.6-0.8c-1.2,0-2.2,1.6-5.5,2.6c-0.3,0.1-0.5,0.3-0.5,0.6c0,1.1,2.8-0.3,2.8,2.8v12.1
		c0,3.5-1.3,3.3-1.9,3.3c-0.2,0-3.9,0.2-3.9-2.9v-8.5c0-3.9-1.5-9.6-8.4-9.6c-5,0-7.5,4.4-7.4,3.8V377c0-0.5-0.3-0.8-0.6-0.8
		c-1.2,0-2.2,1.6-6.5,2.6c-0.3,0.1-0.5,0.3-0.5,0.6c0,1.1,3.8-0.3,3.8,2.8v12.7c0,3.3-3,2.3-3,3.3c0,0.5,0.3,0.6,0.9,0.6
		s1.6-0.2,4.4-0.2c3,0,4,0.2,4.9,0.2c0.8,0,1.1-0.1,1.1-0.7c0-1.4-4.5,0.1-4.5-3.4v-11.8c-0.1-0.8,1.7-4,6-4c4.2,0,6,3.8,6,6.4v9.6
		c0,3.3-2.2,2.3-2.2,3.3c0,0.5,0.3,0.6,0.9,0.6s1.7-0.2,3.7-0.2c2.5,0,3.8,0.2,4.5,0.2C314.4,398.8,314.9,398.8,314.9,398.8
		L314.9,398.8L314.9,398.8z"/>
	<path class="st0" d="M319.1,369.3c-0.6,0-2.2,2.2-2.2,2.7c0,0.6,1.5,2.7,2.2,2.7s2.2-2,2.2-2.7
		C321.3,371.4,319.9,369.3,319.1,369.3L319.1,369.3L319.1,369.3z"/>
	<path class="st0" d="M394.4,394c0,4.7-2.3,2.7-2.3,4c0,0.5,0.4,0.6,0.8,0.6c0.6,0,1.9-0.2,3.5-0.2c2.1,0,3.7,0.2,4.8,0.2
		c0.7,0,1-0.2,1-0.6c0-1.3-4.1-0.2-4.1-2.8v-18.4c0-0.5-0.3-0.8-0.6-0.8c-1.2,0-2.2,1.6-5.5,2.6c-0.3,0.1-0.5,0.3-0.5,0.6
		c0,1.1,2.8-0.3,2.8,2.8v12L394.4,394L394.4,394z"/>
	<path class="st0" d="M396.5,369.3c-0.6,0-2.2,2.2-2.2,2.7c0,0.6,1.5,2.7,2.2,2.7s2.2-2,2.2-2.7
		C398.6,371.4,397.1,369.3,396.5,369.3L396.5,369.3L396.5,369.3z"/>
	<path class="st0" d="M430.6,396.5v-1.2h0.8c0.4,0,0.9,0.1,0.9,0.6c0,0.6-0.5,0.7-1,0.7L430.6,396.5L430.6,396.5L430.6,396.5z
		 M430.6,397h0.7l1.1,1.8h0.7l-1.1-1.8c0.6-0.1,1-0.4,1-1.1c0-0.8-0.5-1.2-1.4-1.2h-1.6v4h0.6L430.6,397L430.6,397L430.6,397z
		 M428.5,396.7c0-1.7,1.2-2.9,2.9-2.9c1.6,0,2.8,1.2,2.8,2.9c0,1.7-1.3,2.9-2.8,2.9C429.8,399.7,428.5,398.4,428.5,396.7
		L428.5,396.7L428.5,396.7z M431.4,400.2c1.9,0,3.5-1.5,3.5-3.5s-1.6-3.5-3.5-3.5s-3.6,1.5-3.6,3.5
		C427.9,398.8,429.4,400.2,431.4,400.2L431.4,400.2L431.4,400.2z"/>
	<path class="st1" d="M20.4,350H7.5H6.7c-2.4,0-3.3,0.9-4,2l-10.1,15l-9.8-14.7l-0.3-0.5c0,0-0.3-0.4-0.7-0.4l0,0l0,0l0,0l0,0
		c-0.5-0.1-0.8,0.4-0.8,0.4l-0.3,0.5l-9.4,14.8L-39.2,352c-0.7-1.1-1.6-2-4-2H-44h-12.9v12.3h7.6c1.6,0,2.3,0.1,3.5,1.4l0.5,0.7
		l15.3,24.1c0,0,0.5,0.8,1.3,0.8c0.9,0,1.4-0.8,1.4-0.8l9-13.4l0,0l0,0l0,0l0,0l9.3,13.4c0,0,0.5,0.8,1.3,0.8s1.3-0.8,1.3-0.8
		l15.2-24.1l0.5-0.7c0.8-1.2,1.8-1.4,3.4-1.3h7.6L20.4,350L20.4,350z"/>
	<path class="st1" d="M0.9,384.5l-8.3,13.2l-10.7-15.6l-8.2,12.1L-9,421.4c0.6,1,1.1,1.2,1.3,1.2c0.5,0,0.8-0.3,1.4-1.2l13.6-24.8
		c1.2-2.2,3.2-2.1,3.2-2.1h9.8v-12.3H5.1C2.3,382.2,0.9,384.5,0.9,384.5L0.9,384.5z"/>
</g>
<g>
	<path class="st0" d="M41.3,443.7v-20.8H44v18.3h10.2v2.4H41.3V443.7z"/>
	<path class="st0" d="M57.1,443.7v-20.8h2.7v20.8H57.1z"/>
	<path class="st0" d="M63.6,443.7v-20.8h7.8c1.6,0,2.9,0.2,3.8,0.6c1,0.4,1.7,1.1,2.3,1.9c0.5,0.9,0.8,1.8,0.8,2.7
		c0,0.9-0.2,1.7-0.7,2.5c-0.5,0.8-1.2,1.4-2.2,1.9c1.3,0.4,2.2,1,2.9,1.9s1,1.9,1,3.1c0,1-0.2,1.9-0.6,2.7c-0.4,0.8-0.9,1.5-1.5,1.9
		s-1.4,0.8-2.3,1c-0.9,0.2-2,0.3-3.3,0.3h-8V443.7z M66.4,431.7h4.5c1.2,0,2.1-0.1,2.6-0.2c0.7-0.2,1.2-0.6,1.6-1
		c0.4-0.5,0.5-1.1,0.5-1.8c0-0.7-0.2-1.3-0.5-1.8c-0.3-0.5-0.8-0.9-1.4-1.1c-0.6-0.2-1.7-0.3-3.2-0.3h-4.1V431.7L66.4,431.7z
		 M66.4,441.2h5.2c0.9,0,1.5,0,1.9-0.1c0.6-0.1,1.2-0.3,1.6-0.6c0.4-0.3,0.8-0.6,1-1.2c0.3-0.5,0.4-1.1,0.4-1.7c0-0.8-0.2-1.4-0.6-2
		c-0.4-0.6-0.9-1-1.6-1.2c-0.7-0.2-1.7-0.3-3-0.3h-4.8L66.4,441.2L66.4,441.2z"/>
	<path class="st0" d="M82.2,443.7v-20.8h9.2c1.9,0,3.3,0.2,4.2,0.6c1,0.4,1.7,1,2.3,2c0.6,1,0.9,2,0.9,3.1c0,1.5-0.5,2.7-1.4,3.7
		S95,434,93,434.2c0.7,0.3,1.3,0.7,1.7,1c0.8,0.7,1.6,1.7,2.3,2.8l3.6,5.6h-3.5l-2.7-4.3c-0.8-1.2-1.5-2.2-2-2.9
		c-0.5-0.7-1-1.1-1.4-1.4s-0.8-0.4-1.3-0.6c-0.3-0.1-0.8-0.1-1.5-0.1H85v9.2h-2.8C82.2,443.5,82.2,443.7,82.2,443.7z M84.9,432.1
		h5.9c1.3,0,2.2-0.1,2.9-0.4c0.7-0.3,1.2-0.7,1.6-1.2c0.4-0.6,0.6-1.2,0.6-1.9c0-1-0.4-1.8-1.1-2.4s-1.8-0.9-3.4-0.9h-6.6
		L84.9,432.1L84.9,432.1z"/>
	<path class="st0" d="M99.9,443.7l8-20.8h3l8.5,20.8h-3.1l-2.4-6.3h-8.8l-2.3,6.3H99.9z M105.9,435.2h7l-2.2-5.7
		c-0.7-1.7-1.2-3.2-1.5-4.3c-0.3,1.3-0.6,2.7-1.1,4L105.9,435.2z"/>
	<path class="st0" d="M120.6,443.7v-20.8h9.2c1.9,0,3.3,0.2,4.2,0.6c1,0.4,1.7,1,2.3,2s0.9,2,0.9,3.1c0,1.5-0.5,2.7-1.4,3.7
		c-0.9,1-2.4,1.7-4.4,1.9c0.7,0.3,1.3,0.7,1.7,1c0.8,0.7,1.6,1.7,2.3,2.8l3.6,5.6h-3.5l-2.7-4.3c-0.8-1.2-1.5-2.2-2-2.9
		c-0.5-0.7-1-1.1-1.4-1.4c-0.4-0.3-0.8-0.4-1.3-0.6c-0.3-0.1-0.8-0.1-1.5-0.1h-3.2v9.2h-2.8C120.6,443.5,120.6,443.7,120.6,443.7z
		 M123.4,432.1h5.9c1.3,0,2.2-0.1,2.9-0.4s1.2-0.7,1.6-1.2c0.4-0.6,0.6-1.2,0.6-1.9c0-1-0.4-1.8-1.1-2.4s-1.8-0.9-3.4-0.9h-6.6
		L123.4,432.1L123.4,432.1z"/>
	<path class="st0" d="M141.1,443.7v-20.8h2.7v20.8H141.1z"/>
	<path class="st0" d="M147.8,443.7v-20.8h15v2.4h-12.3v6.4H162v2.4h-11.5v7.1h12.7v2.4h-15.4V443.7z"/>
	<path class="st0" d="M165.2,437l2.6-0.2c0.1,1,0.4,1.9,0.9,2.6c0.4,0.7,1.1,1.2,2.1,1.6c0.9,0.4,2,0.6,3.2,0.6c1,0,2-0.2,2.8-0.5
		s1.4-0.7,1.8-1.3c0.4-0.5,0.6-1.1,0.6-1.8c0-0.7-0.2-1.2-0.6-1.7s-1-0.9-1.9-1.2c-0.6-0.2-1.8-0.6-3.7-1c-1.9-0.5-3.2-0.9-4-1.3
		c-1-0.5-1.7-1.2-2.2-1.9c-0.5-0.8-0.7-1.6-0.7-2.6s0.3-2,0.9-2.9s1.5-1.6,2.6-2.1s2.4-0.7,3.8-0.7c1.5,0,2.9,0.2,4.1,0.7
		s2.1,1.2,2.7,2.2s1,2.1,1,3.3l-2.6,0.2c-0.1-1.3-0.6-2.3-1.4-3s-2-1-3.6-1c-1.7,0-2.9,0.3-3.6,0.9c-0.8,0.6-1.1,1.3-1.1,2.2
		c0,0.7,0.3,1.4,0.8,1.8c0.5,0.5,1.9,1,4.1,1.5s3.8,0.9,4.6,1.3c1.2,0.6,2.1,1.3,2.7,2.1c0.6,0.9,0.9,1.8,0.9,3
		c0,1.1-0.3,2.1-0.9,3.1c-0.6,1-1.5,1.7-2.7,2.3c-1.2,0.5-2.5,0.8-4,0.8c-1.9,0-3.5-0.3-4.7-0.8c-1.3-0.5-2.3-1.4-3-2.5
		C165.6,439.6,165.2,438.4,165.2,437z"/>
</g>
</svg>
